<?xml version="1.0" encoding="UTF-8"?><svg id="Capa_1" xmlns="http://www.w3.org/2000/svg" viewBox="0 0 600 300"><defs><style>.cls-1,.cls-2{fill:#333;}.cls-2{font-family:Sansation-Regular, Sansation;font-size:91.87px;}</style></defs><text class="cls-2" transform="translate(177.85 168.37)"><tspan x="0" y="0">agency ai</tspan></text><rect class="cls-1" x="84.24" y="201.8" width="18.52" height="18.52" rx="3.69" ry="3.69" transform="translate(-121.86 127.93) rotate(-45)"/><rect class="cls-1" x="143.17" y="142.87" width="18.52" height="18.52" rx="3.69" ry="3.69" transform="translate(-62.93 152.34) rotate(-45)"/><rect class="cls-1" x="25.31" y="142.87" width="18.52" height="18.52" rx="3.69" ry="3.69" transform="translate(-97.45 69) rotate(-45)"/><rect class="cls-1" x="84.24" y="83.94" width="18.52" height="18.52" rx="3.69" ry="3.69" transform="translate(-38.52 93.41) rotate(-45)"/><path class="cls-1" d="M127.65,160.55c-1.14,1.82-1.79,3.97-1.79,6.28s.71,4.63,1.94,6.5c.9,1.37,2.07,2.54,3.43,3.43l2.23,2.23c1.44,1.44,1.44,3.78,0,5.22l-7.88,7.88c-1.44,1.44-3.78,1.44-5.22,0l-2.98-2.98c-.46-.55-.97-1.06-1.52-1.53-2.06-1.72-4.71-2.75-7.6-2.75-3.07,0-5.87,1.17-7.98,3.08-.02.01-.03.03-.05.04-.25.23-.5.47-.73.73,0,.01-.02.02-.03.04l-3.36,3.36c-1.44,1.44-3.78,1.44-5.22,0l-7.88-7.88c-1.44-1.44-1.44-3.78,0-5.22l1.18-1.18c2.22-1.13,4.03-2.95,5.16-5.16.83-1.62,1.3-3.45,1.3-5.4,0-2.89-1.03-5.53-2.75-7.59-.46-.55-.97-1.06-1.52-1.53-2.06-1.72-4.71-2.75-7.6-2.75-3.07,0-5.87,1.17-7.98,3.08-.02.01-.03.03-.05.04-.25.23-.5.47-.73.73,0,.01-.02.02-.03.04l-3.36,3.36c-1.44,1.44-3.78,1.44-5.22,0l-7.88-7.88c-1.44-1.44-1.44-3.78,0-5.22l2.13-2.13c1.48-.94,2.74-2.19,3.67-3.67,1.17-1.84,1.84-4.01,1.84-6.35s-.63-4.35-1.71-6.15t0,0c-.99-1.63-2.37-3-4-4h0l-1.93-1.94c-1.44-1.44-1.44-3.78,0-5.22l7.88-7.88c1.44-1.44,3.78-1.44,5.22,0l1.26,1.26c1.19,2.75,3.4,4.96,6.16,6.16,1.45.63,3.04.98,4.73.98s3.2-.33,4.63-.94c2.83-1.2,5.1-3.47,6.3-6.3l1.17-1.17c1.44-1.44,3.78-1.44,5.22,0l7.88,7.88c1.44,1.44,1.44,3.78,0,5.22l-2.03,2.03c-1.52.95-2.81,2.24-3.76,3.77l-2.09,2.09c-1.44,1.44-3.78,1.44-5.22,0l-2.98-2.98c-.46-.55-.97-1.06-1.52-1.53-2.06-1.72-4.71-2.75-7.6-2.75-3.07,0-5.87,1.17-7.98,3.08-.02.01-.03.03-.05.04-.25.23-.5.47-.73.73,0,.01-.02.02-.03.04-1.92,2.11-3.08,4.91-3.08,7.98,0,1.99.49,3.86,1.35,5.51,1.12,2.14,2.87,3.89,5.01,5.01,1.65.87,3.52,1.35,5.51,1.35s3.78-.47,5.4-1.3c2.22-1.13,4.03-2.95,5.16-5.16l1.53-1.53c1.44-1.44,3.78-1.44,5.22,0l2.22,2.22c.9,1.37,2.07,2.54,3.43,3.43l2.23,2.23c1.44,1.44,1.44,3.78,0,5.22l-2.03,2.03c-1.52.95-2.81,2.24-3.76,3.77-1.15,1.83-1.8,3.98-1.8,6.29s.71,4.63,1.94,6.5c.9,1.37,2.07,2.54,3.43,3.43,1.87,1.22,4.1,1.94,6.5,1.94s4.51-.68,6.35-1.84c1.48-.94,2.74-2.19,3.67-3.67,1.17-1.84,1.84-4.01,1.84-6.35s-.63-4.35-1.71-6.15t0,0c-.99-1.63-2.37-3-4-4h0l-1.93-1.94c-1.44-1.44-1.44-3.78,0-5.22l2.13-2.13c1.48-.94,2.74-2.19,3.67-3.67,1.17-1.84,1.84-4.01,1.84-6.35s-.63-4.35-1.71-6.15t0,0c-.99-1.63-2.37-3-4-4h0l-1.93-1.94c-1.44-1.44-1.44-3.78,0-5.22l7.88-7.88c1.44-1.44,3.78-1.44,5.22,0l7.88,7.88c1.44,1.44,1.44,3.78,0,5.22l-2.03,2.03c-1.52.95-2.81,2.24-3.76,3.77-1.15,1.83-1.8,3.98-1.8,6.29s.71,4.63,1.94,6.5c.9,1.37,2.07,2.54,3.43,3.43l2.23,2.23c1.44,1.44,1.44,3.78,0,5.22l-2.02,2.03c-.6.37-1.16.8-1.69,1.28-.02.02-.03.03-.05.05l-.72.72s-.02.02-.04.04c-.47.52-.9,1.09-1.28,1.69,0,0,0,0,0,.01Z"/></svg>