<?xml version="1.0" encoding="UTF-8"?><svg id="Capa_1" xmlns="http://www.w3.org/2000/svg" viewBox="0 0 600 600"><defs><style>.cls-1{fill:#fff;}</style></defs><rect class="cls-1" x="268.18" y="470.63" width="63.63" height="63.63" rx="12.68" ry="12.68" transform="translate(-267.42 359.3) rotate(-45)"/><rect class="cls-1" x="470.63" y="268.18" width="63.63" height="63.63" rx="12.68" ry="12.68" transform="translate(-64.97 443.15) rotate(-45)"/><rect class="cls-1" x="65.73" y="268.18" width="63.63" height="63.63" rx="12.68" ry="12.68" transform="translate(-183.56 156.85) rotate(-45)"/><rect class="cls-1" x="268.18" y="65.73" width="63.63" height="63.63" rx="12.68" ry="12.68" transform="translate(18.89 240.7) rotate(-45)"/><path class="cls-1" d="M417.32,328.92c-3.91,6.26-6.16,13.65-6.16,21.57s2.45,15.91,6.65,22.33c3.08,4.7,7.1,8.72,11.8,11.8l7.65,7.65c4.95,4.95,4.95,12.98,0,17.93l-27.06,27.08c-4.95,4.95-12.98,4.95-17.93,0l-10.22-10.22c-1.57-1.9-3.33-3.66-5.23-5.24-7.07-5.9-16.17-9.45-26.11-9.45-10.56,0-20.17,4.01-27.42,10.59-.06.04-.11.1-.15.14-.87.8-1.7,1.63-2.5,2.5-.03.04-.07.08-.11.13l-11.56,11.56c-4.95,4.95-12.98,4.95-17.93,0l-27.06-27.08c-4.96-4.95-4.96-12.98,0-17.93l4.06-4.06c7.62-3.89,13.85-10.12,17.74-17.74,2.87-5.57,4.47-11.87,4.47-18.56,0-9.93-3.53-19.01-9.43-26.08-1.57-1.9-3.33-3.66-5.23-5.24-7.07-5.9-16.17-9.45-26.11-9.45-10.56,0-20.17,4.01-27.42,10.59-.06.04-.11.1-.15.14-.87.8-1.7,1.63-2.5,2.5-.03.04-.07.08-.11.13l-11.56,11.56c-4.95,4.95-12.98,4.95-17.93,0l-27.06-27.08c-4.96-4.95-4.96-12.98,0-17.93l7.32-7.32c5.09-3.22,9.41-7.54,12.62-12.62,4.01-6.31,6.33-13.79,6.33-21.82s-2.15-14.96-5.88-21.12t-.01-.03c-3.42-5.61-8.13-10.32-13.74-13.74h-.01l-6.64-6.65c-4.96-4.95-4.96-12.98,0-17.93l27.06-27.06c4.95-4.95,12.98-4.95,17.93,0l4.34,4.34c4.11,9.46,11.7,17.05,21.16,21.16,4.98,2.18,10.46,3.37,16.24,3.37s11.01-1.14,15.9-3.22c9.73-4.12,17.53-11.92,21.65-21.65l4.01-4.01c4.95-4.95,12.98-4.95,17.93,0l27.06,27.06c4.95,4.95,4.95,12.98,0,17.93l-27.06,27.08c-4.95,4.95-12.98,4.95-17.93,0l-10.22-10.22c-1.57-1.9-3.33-3.66-5.23-5.24-7.07-5.9-16.17-9.45-26.11-9.45-10.56,0-20.17,4.01-27.42,10.59-.06.04-.11.1-.15.14-.87.8-1.7,1.63-2.5,2.5-.03.04-.07.08-.11.13-6.58,7.24-10.59,16.86-10.59,27.42,0,6.83,1.67,13.27,4.65,18.92,3.84,7.34,9.86,13.36,17.19,17.19,5.65,2.98,12.09,4.65,18.92,4.65s12.99-1.6,18.56-4.47c7.62-3.89,13.85-10.12,17.74-17.74l5.26-5.26c4.95-4.95,12.98-4.95,17.93,0l27.06,27.06c4.95,4.95,4.95,12.98,0,17.93l-6.97,6.97c-5.23,3.28-9.64,7.7-12.92,12.93-3.94,6.27-6.2,13.68-6.2,21.62s2.45,15.91,6.65,22.33c3.08,4.7,7.1,8.72,11.8,11.8,6.41,4.2,14.09,6.65,22.33,6.65s15.51-2.32,21.82-6.33c5.09-3.22,9.41-7.54,12.62-12.62,4.01-6.31,6.33-13.79,6.33-21.82s-2.15-14.96-5.88-21.12t-.01-.03c-3.42-5.61-8.13-10.32-13.74-13.74h-.01l-6.64-6.65c-4.96-4.95-4.96-12.98,0-17.93l7.32-7.32c5.09-3.22,9.41-7.54,12.62-12.62,4.01-6.31,6.33-13.79,6.33-21.82s-2.15-14.96-5.88-21.12t-.01-.03c-3.42-5.61-8.13-10.32-13.74-13.74h-.01l-6.64-6.65c-4.96-4.95-4.96-12.98,0-17.93l27.06-27.06c4.95-4.95,12.98-4.95,17.93,0l27.06,27.06c4.95,4.95,4.95,12.98,0,17.93l-6.97,6.97c-5.23,3.28-9.64,7.7-12.92,12.93-3.94,6.27-6.2,13.68-6.2,21.62s2.45,15.91,6.65,22.33c3.08,4.7,7.1,8.72,11.8,11.8l7.65,7.65c4.95,4.95,4.95,12.98,0,17.93l-6.95,6.96c-2.05,1.28-3.99,2.76-5.79,4.39-.06.06-.11.1-.17.15l-2.47,2.47s-.08.08-.13.14c-1.63,1.8-3.11,3.74-4.4,5.81-.01.01-.01.03-.03.04Z"/></svg>