<svg id="Layer_1" data-name="Layer 1" xmlns="http://www.w3.org/2000/svg" viewBox="0 0 677.53 303"><defs><style>.cls-1,.cls-2{fill:#fff;}.cls-2{fill-rule:evenodd;}</style></defs><title>epic revisi1</title><path class="cls-1" d="M181.23,224.25V189H83.34V151.09h85V115.8h-85V79.22h96.6V43.93h-136V224.25h137.3Zm178-117.47v-0.52a65.48,65.48,0,0,0-4.77-25.37,55.67,55.67,0,0,0-13.65-19.71,61.49,61.49,0,0,0-21.64-12.75,86.66,86.66,0,0,0-29-4.51H216.53V224.25H256.2v-54.1h30.14a98.3,98.3,0,0,0,28.46-4,67.57,67.57,0,0,0,23.19-12,56.27,56.27,0,0,0,15.59-19.84q5.67-11.85,5.67-27.56h0Zm-40.19.77A25.79,25.79,0,0,1,310.81,127q-8.24,7.86-23.18,7.86H256.2V79.74h30.66q14.94,0,23.57,7T319.06,107v0.51h0Zm111,116.7V43.93H390.41V224.25h39.67ZM633.6,195.15l-25.25-25.5A101.52,101.52,0,0,1,587.1,185.1q-10.69,5.67-26.15,5.67A49.58,49.58,0,0,1,523.21,174a57.34,57.34,0,0,1-10.69-18,61.84,61.84,0,0,1-3.86-21.9v-0.52a60.79,60.79,0,0,1,3.86-21.77,56.39,56.39,0,0,1,10.82-17.9A49.67,49.67,0,0,1,540,81.8a50.24,50.24,0,0,1,21-4.38,54.79,54.79,0,0,1,24.6,5.41,95.51,95.51,0,0,1,21.51,14.94l25.25-29.11a106.25,106.25,0,0,0-13.4-11.33,82.1,82.1,0,0,0-15.71-8.76,96.14,96.14,0,0,0-18.93-5.67,119.28,119.28,0,0,0-23.06-2.06,96.42,96.42,0,0,0-38.13,7.34,89.57,89.57,0,0,0-29.63,20.09A93,93,0,0,0,474.14,97.9a94,94,0,0,0-7,36.19v0.51a95,95,0,0,0,7,36.32,88.91,88.91,0,0,0,48.69,49.2,93.34,93.34,0,0,0,36.84,7.21,117.24,117.24,0,0,0,23.7-2.19,84.85,84.85,0,0,0,19.45-6.44,85.77,85.77,0,0,0,16.36-10.18A130.85,130.85,0,0,0,633.6,195.15Z"/><polygon class="cls-2" points="16.78 16.77 660.75 16.77 660.75 268.81 557.83 268.81 557.83 285.59 677.53 285.59 677.53 0 0 0 0 285.59 119.69 285.59 119.69 268.81 16.78 268.81 16.78 16.77"/><polygon class="cls-1" points="497.28 251.58 534.76 251.58 534.76 259.52 506.16 259.52 506.16 272.67 534.76 272.67 534.76 280.61 506.16 280.61 506.16 294.19 534.76 294.19 534.76 302.13 497.28 302.13 497.28 251.58"/><rect class="cls-1" x="455.39" y="251.58" width="8.88" height="50.55"/><path class="cls-1" d="M378.92,251.58h18.85a29.87,29.87,0,0,1,10.87,1.91,25.66,25.66,0,0,1,8.52,5.31,23.63,23.63,0,0,1,5.52,8,25.11,25.11,0,0,1,1.95,9.93v0.14a25.37,25.37,0,0,1-1.95,10,23.56,23.56,0,0,1-5.52,8,26.15,26.15,0,0,1-8.52,5.34,29.39,29.39,0,0,1-10.87,1.95H378.92V251.58h0ZM397.76,294a19.78,19.78,0,0,0,7.22-1.26,15.79,15.79,0,0,0,5.52-3.54,16,16,0,0,0,3.54-5.42,18.11,18.11,0,0,0,1.26-6.82v-0.14A18.4,18.4,0,0,0,414,270a15.94,15.94,0,0,0-3.54-5.45A16.22,16.22,0,0,0,405,261a19.29,19.29,0,0,0-7.22-1.3h-10V294h10Z"/><path class="cls-1" d="M322.15,303a27,27,0,0,1-10.69-2.06,25.39,25.39,0,0,1-8.3-5.6,25.66,25.66,0,0,1-5.42-8.27A26.17,26.17,0,0,1,295.79,277v-0.14a26.17,26.17,0,0,1,1.95-10.07,25.48,25.48,0,0,1,5.49-8.3,26.34,26.34,0,0,1,19.06-7.76A27,27,0,0,1,333,252.77a25.39,25.39,0,0,1,8.3,5.6,25.65,25.65,0,0,1,5.42,8.27,26.18,26.18,0,0,1,1.95,10.07v0.14a26.17,26.17,0,0,1-1.95,10.07,25.5,25.5,0,0,1-5.49,8.31A26.35,26.35,0,0,1,322.15,303h0Zm0.14-8.16a16.68,16.68,0,0,0,6.9-1.41,16.35,16.35,0,0,0,5.38-3.83,17.69,17.69,0,0,0,3.5-5.67,19,19,0,0,0,1.26-6.93v-0.14a19.25,19.25,0,0,0-1.26-7,16.89,16.89,0,0,0-9-9.57,17.48,17.48,0,0,0-13.83,0,16.34,16.34,0,0,0-5.38,3.83,17.69,17.69,0,0,0-3.5,5.67,19,19,0,0,0-1.26,6.93v0.14a19.24,19.24,0,0,0,1.26,7,17.29,17.29,0,0,0,3.54,5.71,17.11,17.11,0,0,0,5.45,3.86A16.55,16.55,0,0,0,322.3,294.84Z"/><path class="cls-1" d="M241.27,303a27,27,0,0,1-10.69-2.06,25.39,25.39,0,0,1-8.3-5.6,25.66,25.66,0,0,1-5.42-8.27A26.17,26.17,0,0,1,214.91,277v-0.14a26.17,26.17,0,0,1,1.95-10.07,25.49,25.49,0,0,1,5.49-8.3,26.34,26.34,0,0,1,19.06-7.76,27,27,0,0,1,10.69,2.06,25.39,25.39,0,0,1,8.3,5.6,25.66,25.66,0,0,1,5.42,8.27,26.18,26.18,0,0,1,1.95,10.07v0.14a26.17,26.17,0,0,1-1.95,10.07,25.51,25.51,0,0,1-5.49,8.31A26.35,26.35,0,0,1,241.27,303h0Zm0.14-8.16a16.67,16.67,0,0,0,6.9-1.41,16.35,16.35,0,0,0,5.38-3.83,17.69,17.69,0,0,0,3.5-5.67,19,19,0,0,0,1.26-6.93v-0.14a19.24,19.24,0,0,0-1.26-7,16.89,16.89,0,0,0-9-9.57,17.48,17.48,0,0,0-13.83,0,16.34,16.34,0,0,0-5.38,3.83,17.69,17.69,0,0,0-3.5,5.67,19,19,0,0,0-1.26,6.93v0.14a19.24,19.24,0,0,0,1.26,7,17.28,17.28,0,0,0,3.54,5.71,17.11,17.11,0,0,0,5.45,3.86A16.55,16.55,0,0,0,241.41,294.84Z"/><polygon class="cls-1" points="142.76 251.58 151.65 251.58 151.65 272.59 175.77 272.59 175.77 251.58 184.65 251.58 184.65 302.13 175.77 302.13 175.77 280.83 151.65 280.83 151.65 302.13 142.76 302.13 142.76 251.58"/></svg>