<svg xmlns="http://www.w3.org/2000/svg" viewBox="0 0 50 62">
  <!-- Left handle pill -->
  <rect x="13" y="0" width="8" height="18" rx="4" fill="#000000"/>
  <!-- Right handle pill -->
  <rect x="29" y="0" width="8" height="18" rx="4" fill="#000000"/>
  <!-- Bag body -->
  <rect x="2" y="14" width="46" height="46" rx="3" fill="#000000"/>
  <!-- White S -->
  <path fill="white" d="M25 26C20.5 26 17.5 28.8 17.5 32.5C17.5 36.2 20 37.8 23.5 38.8C26.5 39.6 28.5 40.4 28.5 42.5C28.5 44.6 27 46 24.8 46C23 46 21.2 45.1 20.2 43.5L18 45.3C19.4 47.4 21.8 48.5 24.8 48.5C28.8 48.5 31.5 46 31.5 42.5C31.5 38.8 29 37.2 25.5 36.2C22.5 35.4 20.5 34.6 20.5 32.5C20.5 30.5 22 29.5 24.5 29.5C26.3 29.5 28 30.3 29 31.8L31.2 29.8C29.8 27.8 27.5 26 25 26Z"/>
</svg>
